<?xml version="1.0" encoding="UTF-8" standalone="no"?>
<!-- Created with Inkscape (http://www.inkscape.org/) -->

<svg
   xmlns:dc="http://purl.org/dc/elements/1.1/"
   xmlns:cc="http://creativecommons.org/ns#"
   xmlns:rdf="http://www.w3.org/1999/02/22-rdf-syntax-ns#"
   xmlns:svg="http://www.w3.org/2000/svg"
   xmlns="http://www.w3.org/2000/svg"
   xmlns:sodipodi="http://sodipodi.sourceforge.net/DTD/sodipodi-0.dtd"
   xmlns:inkscape="http://www.inkscape.org/namespaces/inkscape"
   width="1024"
   height="768"
   id="svg2"
   version="1.1"
   inkscape:version="0.48.0 r9654"
   inkscape:export-filename="/home/nevon/Pictures/Projekt/love-party/preview-image.png"
   inkscape:export-xdpi="90"
   inkscape:export-ydpi="90">
  <defs
     id="defs4">
    <inkscape:perspective
       id="perspective7200"
       inkscape:persp3d-origin="372.04724 : 350.78739 : 1"
       inkscape:vp_z="744.09448 : 526.18109 : 1"
       inkscape:vp_y="0 : 1000 : 0"
       inkscape:vp_x="0 : 526.18109 : 1"
       sodipodi:type="inkscape:persp3d" />
  </defs>
  <sodipodi:namedview
     id="base"
     pagecolor="#ffffff"
     bordercolor="#666666"
     borderopacity="1.0"
     inkscape:pageopacity="0.0"
     inkscape:pageshadow="2"
     inkscape:zoom="0.35355339"
     inkscape:cx="662.70375"
     inkscape:cy="297.90245"
     inkscape:document-units="px"
     inkscape:current-layer="layer1"
     showgrid="false"
     inkscape:window-width="1920"
     inkscape:window-height="1003"
     inkscape:window-x="0"
     inkscape:window-y="24"
     inkscape:window-maximized="1" />
  <metadata
     id="metadata7">
    <rdf:RDF>
      <cc:Work
         rdf:about="">
        <dc:format>image/svg+xml</dc:format>
        <dc:type
           rdf:resource="http://purl.org/dc/dcmitype/StillImage" />
        <dc:title></dc:title>
      </cc:Work>
    </rdf:RDF>
  </metadata>
  <g
     inkscape:label="Layer 1"
     inkscape:groupmode="layer"
     id="layer1"
     transform="translate(0,-284.36218)">
    <rect
       style="fill:#323232;fill-opacity:1;stroke:none"
       id="rect4318"
       width="1024"
       height="768"
       x="0"
       y="284.36218" />
    <path
       sodipodi:end="3.1415927"
       sodipodi:start="0"
       transform="matrix(-1.4565553,0,0,-1.4565553,1152.1868,983.25006)"
       d="m 610,192 a 170.5,124 0 1 1 -341,-1e-5 L 439.5,192 z"
       sodipodi:ry="124"
       sodipodi:rx="170.5"
       sodipodi:cy="192"
       sodipodi:cx="439.5"
       id="path3746"
       style="fill:#e9e9e9;fill-opacity:1;stroke:#60a0b3;stroke-width:0.02;stroke-linecap:round;stroke-linejoin:round;stroke-miterlimit:4;stroke-opacity:1;stroke-dasharray:none;stroke-dashoffset:0"
       sodipodi:type="arc" />
    <g
       id="g3748"
       transform="matrix(1.5483246,0,0,1.2448917,87.202654,-309.40949)">
      <path
         id="path3750"
         transform="translate(0,452.36218)"
         d="m 274.34375,138.25 c -62.48388,0 -113.125,77.09483 -113.125,172.1875 0,95.09267 50.64112,172.1875 113.125,172.1875 C 336.82763,482.625 387.5,405.53017 387.5,310.4375 387.5,215.34483 336.82763,138.25 274.34375,138.25 z m 0,101.125 c 25.78904,0 46.71875,31.8148 46.71875,71.0625 0,39.2477 -20.92971,71.0625 -46.71875,71.0625 -25.78904,0 -46.6875,-31.8148 -46.6875,-71.0625 0,-39.2477 20.89846,-71.0625 46.6875,-71.0625 z"
         style="fill:#e64f4f;fill-opacity:1;stroke:none"
         inkscape:connector-curvature="0" />
      <path
         id="path3752"
         transform="translate(0,452.36218)"
         d="m 274.34375,154.53125 c -56.58192,0 -102.4375,69.79564 -102.4375,155.90625 0,86.11061 45.85558,155.90625 102.4375,155.90625 56.58192,0 102.46875,-69.79564 102.46875,-155.90625 0,-86.11061 -45.88683,-155.90625 -102.46875,-155.90625 z m 0,84.84375 c 25.78904,0 46.71875,31.8148 46.71875,71.0625 0,39.2477 -20.92971,71.0625 -46.71875,71.0625 -25.78904,0 -46.6875,-31.8148 -46.6875,-71.0625 0,-39.2477 20.89846,-71.0625 46.6875,-71.0625 z"
         style="fill:#ffc547;fill-opacity:1;stroke:none"
         inkscape:connector-curvature="0" />
      <path
         id="path3754"
         transform="translate(0,452.36218)"
         d="m 274.34375,172.1875 c -50.16673,0 -90.8125,61.90249 -90.8125,138.25 0,76.34751 40.64577,138.25 90.8125,138.25 50.16673,0 90.84375,-61.90249 90.84375,-138.25 0,-76.34751 -40.67702,-138.25 -90.84375,-138.25 z m 0,67.1875 c 25.78904,0 46.71875,31.8148 46.71875,71.0625 0,39.2477 -20.92971,71.0625 -46.71875,71.0625 -25.78904,0 -46.6875,-31.8148 -46.6875,-71.0625 0,-39.2477 20.89846,-71.0625 46.6875,-71.0625 z"
         style="fill:#fff747;fill-opacity:1;stroke:none"
         inkscape:connector-curvature="0" />
      <path
         id="path3756"
         transform="translate(0,452.36218)"
         d="m 274.34375,191.28125 c -43.23834,0 -78.28125,53.3529 -78.28125,119.15625 0,65.80335 35.04291,119.15625 78.28125,119.15625 43.23834,0 78.3125,-53.3529 78.3125,-119.15625 0,-65.80335 -35.07416,-119.15625 -78.3125,-119.15625 z m 0,48.09375 c 25.78904,0 46.71875,31.8148 46.71875,71.0625 0,39.2477 -20.92971,71.0625 -46.71875,71.0625 -25.78904,0 -46.6875,-31.8148 -46.6875,-71.0625 0,-39.2477 20.89846,-71.0625 46.6875,-71.0625 z"
         style="fill:#a3ff47;fill-opacity:1;stroke:none"
         inkscape:connector-curvature="0" />
      <path
         id="path3758"
         transform="translate(0,452.36218)"
         d="m 274.34375,207.5625 c -37.33637,0 -67.59375,46.05371 -67.59375,102.875 0,56.82129 30.25738,102.875 67.59375,102.875 37.33637,0 67.625,-46.05371 67.625,-102.875 0,-56.82129 -30.28863,-102.875 -67.625,-102.875 z m 0,31.8125 c 25.78904,0 46.71875,31.8148 46.71875,71.0625 0,39.2477 -20.92971,71.0625 -46.71875,71.0625 -25.78904,0 -46.6875,-31.8148 -46.6875,-71.0625 0,-39.2477 20.89846,-71.0625 46.6875,-71.0625 z"
         style="fill:#a2e5f2;fill-opacity:1;stroke:none"
         inkscape:connector-curvature="0" />
      <path
         id="path3760"
         transform="translate(0,452.36218)"
         d="m 272.875,223.125 c -31.00652,1.19552 -55.90625,39.83633 -55.90625,87.3125 0,48.22976 25.68399,87.34375 57.375,87.34375 31.69101,0 57.40625,-39.11399 57.40625,-87.34375 0,-48.22976 -25.71524,-87.3125 -57.40625,-87.3125 -0.49517,0 -0.97658,-0.019 -1.46875,0 z m 1.46875,16.25 c 25.78904,0 46.71875,31.8148 46.71875,71.0625 0,39.2477 -20.92971,71.0625 -46.71875,71.0625 -25.78904,0 -46.6875,-31.8148 -46.6875,-71.0625 0,-39.2477 20.89846,-71.0625 46.6875,-71.0625 z"
         style="fill:#f392fa;fill-opacity:1;stroke:none"
         inkscape:connector-curvature="0" />
    </g>
    <path
       style="fill:#e64f4f;fill-opacity:1;stroke:none"
       d="m 711.79741,482.17608 c -96.74533,0 -175.15422,95.97471 -175.15422,214.35479 0,118.38007 78.40889,214.35479 175.15422,214.35479 96.74533,0 175.2026,-95.97472 175.2026,-214.35479 0,-118.38008 -78.45727,-214.35479 -175.2026,-214.35479 z m 0,125.88967 c 39.9298,0 72.33579,39.60598 72.33579,88.46512 0,48.85913 -32.40599,88.46511 -72.33579,88.46511 -39.92981,0 -72.28741,-39.60598 -72.28741,-88.46511 0,-48.85914 32.3576,-88.46512 72.28741,-88.46512 z"
       id="path3766"
       inkscape:connector-curvature="0" />
    <path
       style="fill:#ffc547;fill-opacity:1;stroke:none"
       d="m 711.79741,502.44447 c -87.60718,0 -158.6065,86.88801 -158.6065,194.0864 0,107.19838 70.99932,194.08639 158.6065,194.08639 87.60718,0 158.65488,-86.88801 158.65488,-194.08639 0,-107.19839 -71.0477,-194.0864 -158.65488,-194.0864 z m 0,105.62128 c 39.9298,0 72.33579,39.60598 72.33579,88.46512 0,48.85913 -32.40599,88.46511 -72.33579,88.46511 -39.92981,0 -72.28741,-39.60598 -72.28741,-88.46511 0,-48.85914 32.3576,-88.46512 72.28741,-88.46512 z"
       id="path3768"
       inkscape:connector-curvature="0" />
    <path
       style="fill:#fff747;fill-opacity:1;stroke:none"
       d="m 711.79741,524.42459 c -77.67439,0 -140.60723,77.0619 -140.60723,172.10628 0,95.04438 62.93284,172.10627 140.60723,172.10627 77.67438,0 140.65561,-77.06189 140.65561,-172.10627 0,-95.04438 -62.98123,-172.10628 -140.65561,-172.10628 z m 0,83.64116 c 39.9298,0 72.33579,39.60598 72.33579,88.46512 0,48.85913 -32.40599,88.46511 -72.33579,88.46511 -39.92981,0 -72.28741,-39.60598 -72.28741,-88.46511 0,-48.85914 32.3576,-88.46512 72.28741,-88.46512 z"
       id="path3770"
       inkscape:connector-curvature="0" />
    <path
       style="fill:#a3ff47;fill-opacity:1;stroke:none"
       d="m 711.79741,548.19424 c -66.94699,0 -121.20479,66.41858 -121.20479,148.33663 0,81.91804 54.2578,148.33662 121.20479,148.33662 66.94698,0 121.25317,-66.41858 121.25317,-148.33662 0,-81.91805 -54.30619,-148.33663 -121.25317,-148.33663 z m 0,59.87151 c 39.9298,0 72.33579,39.60598 72.33579,88.46512 0,48.85913 -32.40599,88.46511 -72.33579,88.46511 -39.92981,0 -72.28741,-39.60598 -72.28741,-88.46511 0,-48.85914 32.3576,-88.46512 72.28741,-88.46512 z"
       id="path3772"
       inkscape:connector-curvature="0" />
    <path
       style="fill:#a2e5f2;fill-opacity:1;stroke:none"
       d="m 711.79741,568.46263 c -57.80882,0 -104.65707,57.33188 -104.65707,128.06824 0,70.73635 46.84825,128.06823 104.65707,128.06823 57.80882,0 104.70545,-57.33188 104.70545,-128.06823 0,-70.73636 -46.89663,-128.06824 -104.70545,-128.06824 z m 0,39.60312 c 39.9298,0 72.33579,39.60598 72.33579,88.46512 0,48.85913 -32.40599,88.46511 -72.33579,88.46511 -39.92981,0 -72.28741,-39.60598 -72.28741,-88.46511 0,-48.85914 32.3576,-88.46512 72.28741,-88.46512 z"
       id="path3774"
       inkscape:connector-curvature="0" />
    <path
       style="fill:#f392fa;fill-opacity:1;stroke:none"
       d="m 709.5326,588.71547 c -47.81403,1.48227 -86.211,49.39139 -86.211,108.25509 0,59.79804 39.60635,108.29382 88.47591,108.29382 48.86955,0 88.52409,-48.49578 88.52409,-108.29382 0,-59.79805 -39.65454,-108.25509 -88.52409,-108.25509 -0.76359,0 -1.50596,-0.0236 -2.26491,0 z m 2.26491,20.14769 c 39.76833,0 72.04328,39.44583 72.04328,88.1074 0,48.66155 -32.27495,88.10738 -72.04328,88.10738 -39.76835,0 -71.9951,-39.44583 -71.9951,-88.10738 0,-48.66157 32.22675,-88.1074 71.9951,-88.1074 z"
       id="path3776"
       inkscape:connector-curvature="0" />
    <path
       id="path3780"
       d="m 312.15421,482.17608 c -96.74533,0 -175.15422,95.97471 -175.15422,214.35479 0,118.38007 78.40889,214.35479 175.15422,214.35479 96.74533,0 175.2026,-95.97472 175.2026,-214.35479 0,-118.38008 -78.45727,-214.35479 -175.2026,-214.35479 z m 0,125.88967 c 39.9298,0 72.33579,39.60598 72.33579,88.46512 0,48.85913 -32.40599,88.46511 -72.33579,88.46511 -39.92981,0 -72.28741,-39.60598 -72.28741,-88.46511 0,-48.85914 32.3576,-88.46512 72.28741,-88.46512 z"
       style="fill:#e64f4f;fill-opacity:1;stroke:none"
       inkscape:connector-curvature="0" />
    <path
       id="path3782"
       d="m 312.15421,502.44447 c -87.60718,0 -158.6065,86.88801 -158.6065,194.0864 0,107.19838 70.99932,194.08639 158.6065,194.08639 87.60718,0 158.65488,-86.88801 158.65488,-194.08639 0,-107.19839 -71.0477,-194.0864 -158.65488,-194.0864 z m 0,105.62128 c 39.9298,0 72.33579,39.60598 72.33579,88.46512 0,48.85913 -32.40599,88.46511 -72.33579,88.46511 -39.92981,0 -72.28741,-39.60598 -72.28741,-88.46511 0,-48.85914 32.3576,-88.46512 72.28741,-88.46512 z"
       style="fill:#ffc547;fill-opacity:1;stroke:none"
       inkscape:connector-curvature="0" />
    <path
       id="path3784"
       d="m 312.15421,524.42459 c -77.67439,0 -140.60723,77.0619 -140.60723,172.10628 0,95.04438 62.93284,172.10627 140.60723,172.10627 77.67438,0 140.65561,-77.06189 140.65561,-172.10627 0,-95.04438 -62.98123,-172.10628 -140.65561,-172.10628 z m 0,83.64116 c 39.9298,0 72.33579,39.60598 72.33579,88.46512 0,48.85913 -32.40599,88.46511 -72.33579,88.46511 -39.92981,0 -72.28741,-39.60598 -72.28741,-88.46511 0,-48.85914 32.3576,-88.46512 72.28741,-88.46512 z"
       style="fill:#fff747;fill-opacity:1;stroke:none"
       inkscape:connector-curvature="0" />
    <path
       id="path3786"
       d="m 312.15421,548.19424 c -66.94699,0 -121.20479,66.41858 -121.20479,148.33663 0,81.91804 54.2578,148.33662 121.20479,148.33662 66.94698,0 121.25317,-66.41858 121.25317,-148.33662 0,-81.91805 -54.30619,-148.33663 -121.25317,-148.33663 z m 0,59.87151 c 39.9298,0 72.33579,39.60598 72.33579,88.46512 0,48.85913 -32.40599,88.46511 -72.33579,88.46511 -39.92981,0 -72.28741,-39.60598 -72.28741,-88.46511 0,-48.85914 32.3576,-88.46512 72.28741,-88.46512 z"
       style="fill:#a3ff47;fill-opacity:1;stroke:none"
       inkscape:connector-curvature="0" />
    <path
       id="path3788"
       d="m 312.15421,568.46263 c -57.80882,0 -104.65707,57.33188 -104.65707,128.06824 0,70.73635 46.84825,128.06823 104.65707,128.06823 57.80882,0 104.70545,-57.33188 104.70545,-128.06823 0,-70.73636 -46.89663,-128.06824 -104.70545,-128.06824 z m 0,39.60312 c 39.9298,0 72.33579,39.60598 72.33579,88.46512 0,48.85913 -32.40599,88.46511 -72.33579,88.46511 -39.92981,0 -72.28741,-39.60598 -72.28741,-88.46511 0,-48.85914 32.3576,-88.46512 72.28741,-88.46512 z"
       style="fill:#a2e5f2;fill-opacity:1;stroke:none"
       inkscape:connector-curvature="0" />
    <path
       id="path3790"
       d="m 309.90233,589.93891 c -47.54389,1.4739 -85.72393,49.11234 -85.72393,107.64348 0,59.4602 39.38259,107.68199 87.97605,107.68199 48.59345,0 88.02395,-48.22179 88.02395,-107.68199 0,-59.46021 -39.4305,-107.64348 -88.02395,-107.64348 -0.75928,0 -1.49746,-0.0235 -2.25212,0 z m 2.25212,20.03386 c 39.54365,0 71.63625,39.22297 71.63625,87.60962 0,48.38663 -32.0926,87.6096 -71.63625,87.6096 -39.54367,0 -71.58835,-39.22297 -71.58835,-87.6096 0,-48.38665 32.04468,-87.60962 71.58835,-87.60962 z"
       style="fill:#f392fa;fill-opacity:1;stroke:none"
       inkscape:connector-curvature="0" />
    <rect
       y="702.73529"
       x="0"
       height="349.62689"
       width="1024"
       id="rect3968"
       style="fill:#323232;fill-opacity:1;stroke:none" />
    <path
       sodipodi:nodetypes="ccccc"
       style="fill:#323232;fill-opacity:1;stroke:none"
       d="m 454.66764,703.71397 0,-32.73852 12.24797,-3.28183 25.11009,0 0,36.82375"
       id="path3792"
       inkscape:connector-curvature="0" />
    <path
       style="fill:none;stroke:#e9e9e9;stroke-width:0.40169957;stroke-linecap:round;stroke-linejoin:round;stroke-miterlimit:4;stroke-opacity:1;stroke-dasharray:none;stroke-dashoffset:0"
       d="m 454.66764,671.27673 26.11047,-0.0125 11.18726,-3.353"
       id="path3794"
       sodipodi:nodetypes="ccc"
       inkscape:connector-curvature="0" />
    <path
       id="path3796"
       d="m 411.78625,704.21388 0,-98.96889 18.97861,-5.08531 38.90886,0 0,105.29909"
       style="fill:#323232;fill-opacity:1;stroke:none"
       inkscape:connector-curvature="0" />
    <path
       sodipodi:nodetypes="ccc"
       id="path3798"
       d="m 411.78625,605.4006 40.45898,-0.0189 17.33502,-5.1956"
       style="fill:none;stroke:#e9e9e9;stroke-width:0.62244582;stroke-linecap:round;stroke-linejoin:round;stroke-miterlimit:4;stroke-opacity:1;stroke-dasharray:none;stroke-dashoffset:0"
       inkscape:connector-curvature="0" />
    <path
       id="path3800"
       d="m 452.24523,605.55425 0,97.72791"
       style="fill:none;stroke:#e9e9e9;stroke-width:0.62048537;stroke-linecap:round;stroke-linejoin:round;stroke-miterlimit:4;stroke-opacity:1;stroke-dasharray:none;stroke-dashoffset:0"
       inkscape:connector-curvature="0" />
    <g
       transform="matrix(1.2448917,0,0,1.2448917,15.803886,-299.7265)"
       id="g3802">
      <rect
         style="fill:#e9e9e9;fill-opacity:1;stroke:none"
         id="rect3804"
         width="6.3639612"
         height="9.0156116"
         x="324.20847"
         y="282.33228"
         transform="translate(0,452.36218)" />
      <rect
         y="734.69446"
         x="337.64349"
         height="9.0156116"
         width="6.3639612"
         id="rect3806"
         style="fill:#e9e9e9;fill-opacity:1;stroke:none" />
    </g>
    <g
       transform="matrix(1.2448917,0,0,1.2448917,15.803886,-277.27959)"
       id="g3808">
      <rect
         transform="translate(0,452.36218)"
         y="282.33228"
         x="324.20847"
         height="9.0156116"
         width="6.3639612"
         id="rect3810"
         style="fill:#e9e9e9;fill-opacity:1;stroke:none" />
      <rect
         style="fill:#e9e9e9;fill-opacity:1;stroke:none"
         id="rect3812"
         width="6.3639612"
         height="9.0156116"
         x="337.64349"
         y="734.69446" />
    </g>
    <g
       id="g3814"
       transform="matrix(1.2448917,0,0,1.2448917,15.803886,-254.83267)">
      <rect
         style="fill:#e9e9e9;fill-opacity:1;stroke:none"
         id="rect3816"
         width="6.3639612"
         height="9.0156116"
         x="324.20847"
         y="282.33228"
         transform="translate(0,452.36218)" />
      <rect
         y="734.69446"
         x="337.64349"
         height="9.0156116"
         width="6.3639612"
         id="rect3818"
         style="fill:#e9e9e9;fill-opacity:1;stroke:none" />
    </g>
    <g
       transform="matrix(1.2448917,0,0,1.2448917,15.803886,-232.38573)"
       id="g3820">
      <rect
         transform="translate(0,452.36218)"
         y="282.33228"
         x="324.20847"
         height="9.0156116"
         width="6.3639612"
         id="rect3822"
         style="fill:#e9e9e9;fill-opacity:1;stroke:none" />
      <rect
         style="fill:#e9e9e9;fill-opacity:1;stroke:none"
         id="rect3824"
         width="6.3639612"
         height="9.0156116"
         x="337.64349"
         y="734.69446" />
    </g>
    <path
       id="path3826"
       d="m 463.64196,624.29515 0,-11.77017 -5.94183,1.76053 0,11.82648 5.94183,-1.81684 z"
       style="fill:#e9e9e9;fill-opacity:1;stroke:none"
       inkscape:connector-curvature="0" />
    <path
       style="fill:#e9e9e9;fill-opacity:1;stroke:none"
       d="m 463.64196,645.86181 0,-11.77018 -5.94183,1.76054 0,11.82647 5.94183,-1.81683 z"
       id="path3828"
       inkscape:connector-curvature="0" />
    <path
       id="path3830"
       d="m 463.64196,667.86859 0,-11.77018 -5.94183,1.76054 0,11.82647 5.94183,-1.81683 z"
       style="fill:#e9e9e9;fill-opacity:1;stroke:none"
       inkscape:connector-curvature="0" />
    <path
       style="fill:#e9e9e9;fill-opacity:1;stroke:none"
       d="m 463.64196,690.53558 0,-11.77018 -5.94183,1.76054 0,11.82647 5.94183,-1.81683 z"
       id="path3832"
       inkscape:connector-curvature="0" />
    <path
       style="fill:none;stroke:#e9e9e9;stroke-width:0.28404725;stroke-linecap:round;stroke-linejoin:round;stroke-miterlimit:4;stroke-opacity:1;stroke-dasharray:none;stroke-dashoffset:0"
       d="m 480.77811,671.47727 0,31.73489"
       id="path3834"
       inkscape:connector-curvature="0" />
    <path
       style="fill:none;stroke:#e9e9e9;stroke-width:0.62244582;stroke-linecap:round;stroke-linejoin:round;stroke-miterlimit:4;stroke-opacity:1;stroke-dasharray:none;stroke-dashoffset:0"
       d="m 411.78625,605.4006 40.45898,-0.0189 17.33502,-5.1956"
       id="path3836"
       sodipodi:nodetypes="ccc"
       inkscape:connector-curvature="0" />
    <path
       style="fill:none;stroke:#e9e9e9;stroke-width:0.62048537;stroke-linecap:round;stroke-linejoin:round;stroke-miterlimit:4;stroke-opacity:1;stroke-dasharray:none;stroke-dashoffset:0"
       d="m 452.24523,605.55425 0,97.72791"
       id="path3838"
       inkscape:connector-curvature="0" />
    <g
       id="g3840"
       transform="matrix(1.2448917,0,0,1.2448917,15.803886,-299.7265)">
      <rect
         transform="translate(0,452.36218)"
         y="282.33228"
         x="324.20847"
         height="9.0156116"
         width="6.3639612"
         id="rect3842"
         style="fill:#e9e9e9;fill-opacity:1;stroke:none" />
      <rect
         style="fill:#e9e9e9;fill-opacity:1;stroke:none"
         id="rect3844"
         width="6.3639612"
         height="9.0156116"
         x="337.64349"
         y="734.69446" />
    </g>
    <g
       id="g3846"
       transform="matrix(1.2448917,0,0,1.2448917,15.803886,-277.27959)">
      <rect
         style="fill:#e9e9e9;fill-opacity:1;stroke:none"
         id="rect3848"
         width="6.3639612"
         height="9.0156116"
         x="324.20847"
         y="282.33228"
         transform="translate(0,452.36218)" />
      <rect
         y="734.69446"
         x="337.64349"
         height="9.0156116"
         width="6.3639612"
         id="rect3850"
         style="fill:#e9e9e9;fill-opacity:1;stroke:none" />
    </g>
    <g
       transform="matrix(1.2448917,0,0,1.2448917,15.803886,-254.83267)"
       id="g3852">
      <rect
         transform="translate(0,452.36218)"
         y="282.33228"
         x="324.20847"
         height="9.0156116"
         width="6.3639612"
         id="rect3854"
         style="fill:#e9e9e9;fill-opacity:1;stroke:none" />
      <rect
         style="fill:#e9e9e9;fill-opacity:1;stroke:none"
         id="rect3856"
         width="6.3639612"
         height="9.0156116"
         x="337.64349"
         y="734.69446" />
    </g>
    <g
       id="g3858"
       transform="matrix(1.2448917,0,0,1.2448917,15.803886,-232.38573)">
      <rect
         style="fill:#e9e9e9;fill-opacity:1;stroke:none"
         id="rect3860"
         width="6.3639612"
         height="9.0156116"
         x="324.20847"
         y="282.33228"
         transform="translate(0,452.36218)" />
      <rect
         y="734.69446"
         x="337.64349"
         height="9.0156116"
         width="6.3639612"
         id="rect3862"
         style="fill:#e9e9e9;fill-opacity:1;stroke:none" />
    </g>
    <path
       style="fill:#e9e9e9;fill-opacity:1;stroke:none"
       d="m 463.64196,624.29515 0,-11.77017 -5.94183,1.76053 0,11.82648 5.94183,-1.81684 z"
       id="path3864"
       inkscape:connector-curvature="0" />
    <path
       style="fill:#323232;fill-opacity:1;stroke:none"
       d="m 512.35881,704.42294 0,-139.08755 26.6719,-7.14672 54.6812,0 0,147.98379"
       id="path3866"
       inkscape:connector-curvature="0" />
    <path
       id="path3868"
       d="m 585.23508,622.4169 0,-16.54141 -8.35045,2.47421 0,16.62052 8.35045,-2.55332 z"
       style="fill:#e9e9e9;fill-opacity:1;stroke:none"
       inkscape:connector-curvature="0" />
    <path
       style="fill:#e9e9e9;fill-opacity:1;stroke:none"
       d="m 585.23508,653.3445 0,-16.54141 -8.35045,2.4742 0,16.62052 8.35045,-2.55331 z"
       id="path3870"
       inkscape:connector-curvature="0" />
    <path
       id="path3872"
       d="m 585.23508,685.19992 0,-16.54142 -8.35045,2.47421 0,16.62052 8.35045,-2.55331 z"
       style="fill:#e9e9e9;fill-opacity:1;stroke:none"
       inkscape:connector-curvature="0" />
    <path
       sodipodi:nodetypes="ccc"
       id="path3874"
       d="m 512.35881,565.55408 56.8597,-0.0266 24.36204,-7.30171"
       style="fill:none;stroke:#e9e9e9;stroke-width:0.8747645;stroke-linecap:round;stroke-linejoin:round;stroke-miterlimit:4;stroke-opacity:1;stroke-dasharray:none;stroke-dashoffset:0"
       inkscape:connector-curvature="0" />
    <path
       id="path3876"
       d="m 569.21851,565.77003 0,137.34351"
       style="fill:none;stroke:#e9e9e9;stroke-width:0.87200934;stroke-linecap:round;stroke-linejoin:round;stroke-miterlimit:4;stroke-opacity:1;stroke-dasharray:none;stroke-dashoffset:0"
       inkscape:connector-curvature="0" />
    <g
       transform="matrix(1.7495291,0,0,1.7495291,-44.141506,-706.48114)"
       id="g3878">
      <rect
         style="fill:#e9e9e9;fill-opacity:1;stroke:none"
         id="rect3880"
         width="6.3639612"
         height="9.0156116"
         x="324.20847"
         y="282.33228"
         transform="translate(0,452.36218)" />
      <rect
         y="734.69446"
         x="337.64349"
         height="9.0156116"
         width="6.3639612"
         id="rect3882"
         style="fill:#e9e9e9;fill-opacity:1;stroke:none" />
    </g>
    <g
       transform="matrix(1.7495291,0,0,1.7495291,-44.141506,-674.93504)"
       id="g3884">
      <rect
         transform="translate(0,452.36218)"
         y="282.33228"
         x="324.20847"
         height="9.0156116"
         width="6.3639612"
         id="rect3886"
         style="fill:#e9e9e9;fill-opacity:1;stroke:none" />
      <rect
         style="fill:#e9e9e9;fill-opacity:1;stroke:none"
         id="rect3888"
         width="6.3639612"
         height="9.0156116"
         x="337.64349"
         y="734.69446" />
    </g>
    <g
       id="g3890"
       transform="matrix(1.7495291,0,0,1.7495291,-44.141506,-643.38892)">
      <rect
         style="fill:#e9e9e9;fill-opacity:1;stroke:none"
         id="rect3892"
         width="6.3639612"
         height="9.0156116"
         x="324.20847"
         y="282.33228"
         transform="translate(0,452.36218)" />
      <rect
         y="734.69446"
         x="337.64349"
         height="9.0156116"
         width="6.3639612"
         id="rect3894"
         style="fill:#e9e9e9;fill-opacity:1;stroke:none" />
    </g>
    <g
       transform="matrix(1.7495291,0,0,1.7495291,-44.141506,-611.84264)"
       id="g3896">
      <rect
         transform="translate(0,452.36218)"
         y="282.33228"
         x="324.20847"
         height="9.0156116"
         width="6.3639612"
         id="rect3898"
         style="fill:#e9e9e9;fill-opacity:1;stroke:none" />
      <rect
         style="fill:#e9e9e9;fill-opacity:1;stroke:none"
         id="rect3900"
         width="6.3639612"
         height="9.0156116"
         x="337.64349"
         y="734.69446" />
    </g>
    <path
       id="path3902"
       d="m 585.23508,592.10786 0,-16.54143 -8.35045,2.47421 0,16.62053 8.35045,-2.55331 z"
       style="fill:#e9e9e9;fill-opacity:1;stroke:none"
       inkscape:connector-curvature="0" />
    <path
       sodipodi:nodetypes="ccccc"
       id="path3904"
       d="m 485.28238,705.38096 3.56184,-2.02932 0,-9.48593 -3.53694,1.14285 -0.0249,10.3724 z"
       style="fill:#e9e9e9;fill-opacity:1;stroke:none"
       inkscape:connector-curvature="0" />
    <path
       id="path3906"
       d="m 317.29097,704.922 0,-99.41307 24.16556,-5.10814 49.54286,0 0,105.77167"
       style="fill:#323232;fill-opacity:1;stroke:none"
       inkscape:connector-curvature="0" />
    <path
       style="fill:#e9e9e9;fill-opacity:1;stroke:none"
       d="m 383.38445,646.30803 0,-11.823 -5.96851,1.76844 0,11.87955 5.96851,-1.82499 z"
       id="path3908"
       inkscape:connector-curvature="0" />
    <path
       id="path3910"
       d="m 383.38445,668.41359 0,-11.82301 -5.96851,1.76845 0,11.87954 5.96851,-1.82498 z"
       style="fill:#e9e9e9;fill-opacity:1;stroke:none"
       inkscape:connector-curvature="0" />
    <path
       style="fill:#e9e9e9;fill-opacity:1;stroke:none"
       d="m 383.38445,691.1823 0,-11.82301 -5.96851,1.76846 0,11.87954 5.96851,-1.82499 z"
       id="path3912"
       inkscape:connector-curvature="0" />
    <path
       style="fill:none;stroke:#e9e9e9;stroke-width:0.62523937;stroke-linecap:round;stroke-linejoin:round;stroke-miterlimit:4;stroke-opacity:1;stroke-dasharray:none;stroke-dashoffset:0"
       d="m 317.91342,605.66524 51.53337,-0.019 21.45871,-5.21891"
       id="path3914"
       sodipodi:nodetypes="ccc"
       inkscape:connector-curvature="0" />
    <path
       style="fill:none;stroke:#e9e9e9;stroke-width:0.62327015;stroke-linecap:round;stroke-linejoin:round;stroke-miterlimit:4;stroke-opacity:1;stroke-dasharray:none;stroke-dashoffset:0"
       d="m 370.06924,605.81959 0,98.16651"
       id="path3916"
       inkscape:connector-curvature="0" />
    <path
       style="fill:#e9e9e9;fill-opacity:1;stroke:none"
       d="m 383.38445,624.64459 0,-11.82301 -5.96851,1.76845 0,11.87954 5.96851,-1.82498 z"
       id="path3918"
       inkscape:connector-curvature="0" />
    <g
       transform="matrix(1.2448917,0,0,1.2448917,13.342859,-301.48705)"
       id="g3920">
      <g
         id="g3922"
         transform="translate(-0.62733459,0)">
        <rect
           style="fill:#e9e9e9;fill-opacity:1;stroke:none"
           id="rect3924"
           width="6.3925233"
           height="9.0560741"
           x="262.24374"
           y="772.57977" />
        <rect
           y="790.69196"
           x="262.24374"
           height="9.0560741"
           width="6.3925233"
           id="rect3926"
           style="fill:#e9e9e9;fill-opacity:1;stroke:none" />
      </g>
      <g
         id="g3928"
         transform="translate(-0.75,0)">
        <rect
           y="772.57977"
           x="275.73907"
           height="9.0560741"
           width="6.3925233"
           id="rect3930"
           style="fill:#e9e9e9;fill-opacity:1;stroke:none" />
        <rect
           style="fill:#e9e9e9;fill-opacity:1;stroke:none"
           id="rect3932"
           width="6.3925233"
           height="9.0560741"
           x="275.73907"
           y="790.69196" />
      </g>
      <g
         id="g3934"
         transform="translate(-0.75,0)">
        <rect
           y="772.57977"
           x="248.99374"
           height="9.0560741"
           width="6.3925233"
           id="rect3936"
           style="fill:#e9e9e9;fill-opacity:1;stroke:none" />
        <rect
           style="fill:#e9e9e9;fill-opacity:1;stroke:none"
           id="rect3938"
           width="6.3925233"
           height="9.0560741"
           x="248.99374"
           y="790.69196" />
      </g>
    </g>
    <rect
       y="618.93884"
       x="322.15405"
       height="30.499847"
       width="41.703873"
       id="rect3940"
       style="fill:#e9e9e9;fill-opacity:1;stroke:none" />
    <text
       id="text3942"
       y="640.69531"
       x="322.87256"
       style="font-size:34.85696793px;font-style:normal;font-variant:normal;font-weight:bold;font-stretch:normal;fill:#323232;fill-opacity:1;stroke:none;font-family:Arial Black;-inkscape-font-specification:'Arial Black, Bold'"
       xml:space="preserve"><tspan
         dx="0 -1.5561147 -2.1785605 -1.2448916"
         style="font-size:14.93870068px;fill:#323232;fill-opacity:1"
         y="640.69531"
         x="322.87256"
         id="tspan3944"
         sodipodi:role="line">LÖVE</tspan></text>
    <path
       sodipodi:nodetypes="ccccs"
       id="path3946"
       d="m 603.90704,704.42294 0,-47.09919 26.67189,-7.14673 77.12813,0 0,55.99544"
       style="fill:#323232;fill-opacity:1;stroke:none"
       inkscape:connector-curvature="0" />
    <path
       style="fill:none;stroke:#e9e9e9;stroke-width:0.8747645;stroke-linecap:round;stroke-linejoin:round;stroke-miterlimit:4;stroke-opacity:1;stroke-dasharray:none;stroke-dashoffset:0"
       d="m 604.34719,657.98257 79.30661,-0.0266 24.36204,-7.30171"
       id="path3948"
       sodipodi:nodetypes="ccc"
       inkscape:connector-curvature="0" />
    <path
       style="fill:none;stroke:#e9e9e9;stroke-width:0.62244582;stroke-linecap:round;stroke-linejoin:round;stroke-miterlimit:4;stroke-opacity:1;stroke-dasharray:none;stroke-dashoffset:0"
       d="m 683.6538,659.22319 0,44.18609"
       id="path3950"
       inkscape:connector-curvature="0" />
    <path
       transform="matrix(-0.62244585,1.0781078,-1.0781078,-0.62244585,1301.6853,293.22619)"
       d="m 506.75,311.1875 a 1.3125,4.1875 0 1 1 -2.625,0 1.3125,4.1875 0 1 1 2.625,0 z"
       sodipodi:ry="4.1875"
       sodipodi:rx="1.3125"
       sodipodi:cy="311.1875"
       sodipodi:cx="505.4375"
       id="path3952"
       style="fill:#323232;fill-opacity:1;stroke:none"
       sodipodi:type="arc" />
    <path
       sodipodi:nodetypes="cc"
       id="path3954"
       d="m 648.02492,649.29468 c 1.94355,1.15388 4.73868,3.37793 8.00652,-2.28213 -5.10968,-2.95009 -8.96901,-5.17827 -8.96901,-5.17827 -2.02969,3.51554 -1.71612,5.8883 0.96249,7.4604 z"
       style="fill:#323232;fill-opacity:1;stroke:none"
       inkscape:connector-curvature="0" />
    <path
       id="path3956"
       d="m 646.75956,650.60573 c 0.0778,-1.47831 0.85587,-2.02295 0.85587,-2.02295 l 2.33417,1.4005 -0.70025,0.93367 -2.48979,-0.31122 z"
       style="fill:#323232;fill-opacity:1;stroke:none"
       inkscape:connector-curvature="0" />
    <path
       sodipodi:nodetypes="cccc"
       id="path3958"
       d="m 671.82613,590.68107 c 0,0 -22.44692,48.63498 -23.47155,50.62687 1.55611,0.0388 5.60201,1.47831 7.66386,4.55164 L 697.354,610.70725"
       style="fill:#323232;fill-opacity:1;stroke:none"
       inkscape:connector-curvature="0" />
    <path
       transform="matrix(1.2448917,0,0,1.2448917,10.302211,253.2923)"
       d="m 555.25561,278.44318 a 13.081475,13.081475 0 1 1 -26.16295,0 13.081475,13.081475 0 1 1 26.16295,0 z"
       sodipodi:ry="13.081475"
       sodipodi:rx="13.081475"
       sodipodi:cy="278.44318"
       sodipodi:cx="542.17413"
       id="path3960"
       style="fill:#323232;fill-opacity:1;stroke:none"
       sodipodi:type="arc" />
    <path
       transform="matrix(2.2184641,0,0,2.2184641,-513.5949,6.4667781)"
       d="m 539.02917,263.71353 a 0.90416634,0.90416634 0 1 1 -1.80834,0 0.90416634,0.90416634 0 1 1 1.80834,0 z"
       sodipodi:ry="0.90416634"
       sodipodi:rx="0.90416634"
       sodipodi:cy="263.71353"
       sodipodi:cx="538.125"
       id="path3962"
       style="fill:#e9e9e9;fill-opacity:1;stroke:none"
       sodipodi:type="arc" />
    <path
       sodipodi:type="arc"
       style="fill:#e9e9e9;fill-opacity:1;stroke:none"
       id="path3964"
       sodipodi:cx="538.125"
       sodipodi:cy="263.71353"
       sodipodi:rx="0.90416634"
       sodipodi:ry="0.90416634"
       d="m 539.02917,263.71353 a 0.90416634,0.90416634 0 1 1 -1.80834,0 0.90416634,0.90416634 0 1 1 1.80834,0 z"
       transform="matrix(2.2184641,0,0,2.2184641,-500.52354,12.06879)" />
    <path
       sodipodi:nodetypes="csc"
       id="path3966"
       d="m 680.43484,602.13164 c -1.41957,2.73443 -0.65328,4.12409 0.0304,4.47898 0.68359,0.35489 2.1431,-0.41369 3.32665,-2.69347"
       style="fill:none;stroke:#e9e9e9;stroke-width:1.24489164;stroke-linecap:round;stroke-opacity:1"
       inkscape:connector-curvature="0" />
    <text
       id="text3970"
       y="788.52209"
       x="218.42755"
       style="font-size:89.63220215px;font-style:normal;font-variant:normal;font-weight:bold;font-stretch:normal;fill:#e9e9e9;fill-opacity:1;stroke:none;font-family:Arial Black;-inkscape-font-specification:'Arial Black, Bold'"
       xml:space="preserve"><tspan
         dx="0 -7.04217 -10.563254 -4.4013567 -4.4013567 -5.2816281 -16.725153 -3.5210855 -4.4013567 -0.88027138"
         y="788.52209"
         x="218.42755"
         id="tspan3972"
         sodipodi:role="line">LÖVE-PARTY</tspan></text>
  </g>
</svg>
